PathFileType	4	(X/Y/Z)	SUBJ59_0_static_RCNL2025.trc
DataRate	CameraRate	NumFrames	NumMarkers	Units	OrigDataRate	OrigDataStartFrame	OrigNumFrames
100	100	11	25	mm	100	44	72
Frame#	Time	R_Shoulder			L_Shoulder			C7			J_Notch			R_Elbow			L_Elbow			R_Wrist			L_Wrist			R_Asis			L_Asis			Sacral			Thoracic			Sternum			R_Thigh_Lateral			R_Knee_Lateral			R_Shank_Lateral			R_Ankle_Lateral			R_Heel			R_Toe			L_Thigh_Lateral			L_Knee_Lateral			L_Shank_Lateral			L_Ankle_Lateral			L_Heel			L_Toe		
		X1	Y1	Z1	X2	Y2	Z2	X3	Y3	Z3	X4	Y4	Z4	X5	Y5	Z5	X6	Y6	Z6	X7	Y7	Z7	X8	Y8	Z8	X9	Y9	Z9	X10	Y10	Z10	X11	Y11	Z11	X12	Y12	Z12	X13	Y13	Z13	X14	Y14	Z14	X15	Y15	Z15	X16	Y16	Z16	X17	Y17	Z17	X18	Y18	Z18	X19	Y19	Z19	X20	Y20	Z20	X21	Y21	Z21	X22	Y22	Z22	X23	Y23	Z23	X24	Y24	Z24	X25	Y25	Z25
44	0.43000000	-247.024567	1458.401245	-16.227722	-259.340973	1489.274658	-419.077179	-356.399902	1557.358887	-209.165878	-193.960495	1466.307617	-223.190231	-286.272949	1141.833618	71.735435	-246.282364	1146.170532	-516.300049	-257.592751	863.410248	75.258036	-185.007530	888.167175	-486.869751	-180.322052	997.977295	-99.399651	-180.238647	995.383667	-327.922119	-396.008759	1032.168823	-218.074280	-412.694733	1340.894165	-235.458313	-131.954651	1276.021606	-233.369736	-291.905029	609.105835	-11.274842	-303.992950	517.948120	-63.110382	-345.790314	321.748169	18.949278	-375.437195	69.407303	-88.364624	-411.102661	57.278572	-135.553253	-211.972107	44.187443	-120.098007	-303.498993	612.066528	-402.699219	-307.482544	503.800720	-343.071716	-343.459839	309.161316	-404.631226	-372.749969	81.926270	-322.191711	-413.719086	58.633926	-267.042450	-209.755051	39.277275	-295.506653
45	0.44000000	-247.069534	1458.404907	-16.141920	-259.383057	1489.257568	-419.099243	-356.419067	1557.407104	-209.135971	-194.037918	1466.306641	-223.098846	-286.217804	1141.893311	71.828079	-246.285156	1146.182617	-516.293152	-257.592018	863.425232	75.349752	-185.013657	888.159607	-486.860107	-180.301849	997.889832	-99.497276	-180.241135	995.384521	-327.914459	-395.973907	1032.109741	-218.115570	-412.672058	1340.932495	-235.456680	-131.950043	1276.026978	-233.342850	-291.885834	609.036072	-11.304885	-304.006683	517.941895	-63.112240	-345.783630	321.713501	18.971907	-375.458435	69.437950	-88.332130	-411.117615	57.348961	-135.527283	-211.973618	44.177685	-120.097374	-303.547272	612.080444	-402.659607	-307.482849	503.772980	-343.000519	-343.429626	309.161194	-404.637360	-372.769226	81.888062	-322.196808	-413.643646	58.605282	-266.993774	-209.771225	39.267036	-295.473541
46	0.45000000	-247.068710	1458.390503	-16.168068	-259.416107	1489.206909	-419.110352	-356.640839	1557.450562	-209.274307	-194.060486	1466.317749	-223.081436	-286.177734	1141.864014	71.812408	-246.189117	1146.207520	-516.216187	-257.527740	863.447510	75.466545	-184.880630	888.228973	-486.823761	-180.517319	997.848938	-99.511856	-180.247467	995.373230	-327.891174	-395.977875	1032.041016	-218.095474	-412.743896	1340.899170	-235.427322	-131.953125	1276.019287	-233.392242	-291.893219	609.174133	-11.292688	-304.266022	517.772339	-63.096825	-345.783691	321.724976	18.996300	-375.498383	69.440536	-88.333893	-411.119629	57.354874	-135.526505	-211.987122	44.226269	-120.068520	-303.537201	612.096985	-402.667328	-307.484894	503.775238	-343.049866	-343.423523	309.157806	-404.651672	-372.770691	81.858147	-322.178009	-413.693146	58.588982	-267.078796	-209.757111	39.222153	-295.495209
47	0.46000000	-247.059601	1458.378662	-16.142221	-259.503754	1489.225464	-419.062317	-356.700745	1557.476196	-209.271912	-194.053543	1466.304810	-223.034042	-286.162231	1141.865845	71.834038	-246.168945	1146.196777	-516.187439	-257.526505	863.482788	75.529825	-184.819023	888.234833	-486.861649	-180.569946	997.805054	-99.570488	-180.259903	995.367310	-327.866516	-395.906036	1032.026123	-218.136337	-412.755493	1340.944580	-235.403809	-131.922623	1276.093384	-233.323654	-291.897247	608.996338	-11.304091	-304.332977	517.824402	-63.143311	-345.676331	321.731171	18.786598	-375.438049	69.386894	-88.325630	-411.100739	57.313507	-135.550400	-211.965225	44.184055	-120.104309	-303.496033	612.132996	-402.683777	-307.485992	503.785858	-343.061127	-343.412170	309.158600	-404.670319	-372.831085	82.014359	-322.041748	-413.700012	58.580925	-267.081268	-209.764252	39.252136	-295.475037
48	0.47000000	-247.043503	1458.382446	-16.164129	-259.517151	1489.210205	-419.089722	-356.746155	1557.443115	-209.174942	-194.150299	1466.330688	-223.138031	-286.057068	1141.820435	71.860413	-246.176926	1146.175659	-516.218323	-257.431053	863.470734	75.565619	-184.810822	888.240875	-486.863098	-180.527390	997.810181	-99.570992	-180.168472	995.390259	-327.995972	-395.971954	1032.037964	-218.098068	-412.794464	1340.928467	-235.492218	-131.895142	1276.169800	-233.348770	-291.852631	609.114197	-11.277185	-304.289886	517.739258	-63.159763	-345.703705	321.683228	18.960520	-375.460297	69.422958	-88.338013	-411.102844	57.343555	-135.547104	-211.976196	44.194027	-120.095169	-303.517944	612.117188	-402.664337	-307.480011	503.845673	-343.046204	-343.428467	309.192261	-404.628448	-372.803131	81.936676	-322.124817	-413.720123	58.665154	-267.019470	-209.751221	39.259247	-295.493408
49	0.48000000	-246.966705	1458.462891	-16.246017	-259.554993	1489.293213	-419.089203	-356.838135	1557.492920	-209.180893	-194.164078	1466.331665	-223.151566	-286.078705	1141.867554	71.868217	-246.128143	1146.235352	-516.264709	-257.368179	863.471985	75.602699	-184.822884	888.253052	-486.865219	-180.428467	997.920776	-99.572929	-180.132309	995.403687	-328.030396	-395.986938	1032.048340	-218.085876	-412.745544	1340.943604	-235.422180	-131.891571	1276.165283	-233.385895	-291.849915	609.142761	-11.292577	-304.135315	517.828186	-63.189144	-345.752899	321.677612	18.954048	-375.454315	69.406403	-88.361053	-411.117249	57.352375	-135.528687	-211.977020	44.186329	-120.100189	-303.468323	612.073792	-402.719879	-307.486725	503.774078	-343.016571	-343.446198	309.158661	-404.660187	-372.747620	81.917236	-322.174591	-413.703125	58.594856	-267.068176	-209.811676	39.244705	-295.455414
50	0.49000000	-247.075668	1458.414185	-16.244078	-259.524628	1489.304688	-419.137329	-356.749329	1557.521118	-209.180832	-194.136444	1466.394531	-223.150299	-286.172546	1141.920288	71.946671	-246.090012	1146.238647	-516.321594	-257.411400	863.494446	75.643978	-184.735382	888.253967	-486.907364	-180.215408	998.011108	-99.485107	-180.072357	995.517883	-328.238312	-395.985107	1032.048096	-218.086823	-412.796692	1340.953735	-235.481140	-131.893188	1276.172119	-233.381897	-291.841156	609.128784	-11.305238	-304.039459	517.860229	-63.184925	-345.740051	321.702972	18.944521	-375.433807	69.442375	-88.351013	-411.120697	57.352863	-135.524368	-211.965607	44.176849	-120.107590	-303.415802	612.069397	-402.684875	-307.382080	503.844177	-343.145203	-343.438965	309.163757	-404.660767	-372.748993	81.894112	-322.146606	-413.638153	58.592190	-266.997284	-209.753937	39.256172	-295.493042
51	0.50000000	-247.139679	1458.484985	-16.246685	-259.579773	1489.252563	-419.130646	-356.659088	1557.424072	-209.119049	-194.127365	1466.399902	-223.131378	-286.109741	1141.881104	71.900475	-246.086975	1146.232910	-516.209412	-257.293976	863.512024	75.684828	-184.730957	888.241302	-486.880829	-180.171356	997.951050	-99.415123	-179.943970	995.621521	-328.343628	-395.989075	1032.077515	-218.076904	-412.822144	1340.906372	-235.443970	-131.896790	1276.163574	-233.410370	-291.771423	609.162415	-11.202554	-304.197266	517.860107	-63.197662	-345.629425	321.720428	18.792316	-375.510071	69.432671	-88.411621	-411.101166	57.326584	-135.543976	-211.974655	44.184803	-120.101875	-303.450714	612.083557	-402.742065	-307.374176	503.844574	-343.071503	-343.445465	309.114502	-404.681702	-372.811951	81.961212	-322.121521	-413.652222	58.714420	-266.911987	-209.740311	39.224323	-295.512878
52	0.51000000	-247.090042	1458.414307	-16.196012	-259.564667	1489.289185	-419.095856	-356.822632	1557.414917	-209.226212	-194.142105	1466.382080	-223.157120	-286.107147	1141.947754	72.012032	-246.089935	1146.347900	-516.620239	-257.281502	863.549164	75.709284	-184.670357	888.235565	-486.864624	-180.146942	997.955322	-99.408257	-180.148148	995.436707	-327.994080	-395.993774	1032.108398	-218.060303	-412.824127	1340.852173	-235.463074	-131.896667	1276.162842	-233.413818	-291.710236	609.059143	-11.267308	-304.429535	517.670044	-63.234085	-345.665588	321.619659	18.922192	-375.447754	69.459663	-88.337738	-411.097992	57.323582	-135.546387	-211.993118	44.221340	-120.065514	-303.410797	612.078369	-402.747803	-307.465271	503.815796	-343.081909	-343.409790	309.155212	-404.689148	-372.822083	81.968338	-322.110077	-413.638519	58.652054	-266.969818	-209.778259	39.286201	-295.482544
53	0.52000000	-247.101486	1458.471436	-16.259384	-259.579010	1489.270386	-419.130920	-356.744904	1557.431030	-209.215424	-194.134430	1466.382690	-223.180801	-286.110077	1141.996948	72.061928	-246.100159	1146.223022	-516.296509	-257.258759	863.546326	75.765432	-184.590775	888.244324	-486.923431	-180.178192	997.993591	-99.493988	-180.126526	995.490784	-328.181549	-395.994812	1032.109985	-218.058975	-412.816467	1340.856567	-235.462601	-131.873032	1276.224976	-233.414810	-291.766113	609.151367	-11.197009	-304.550659	517.627197	-63.246754	-345.724121	321.686188	18.980459	-375.491669	69.441650	-88.319153	-411.116425	57.363266	-135.522995	-211.986694	44.216194	-120.067863	-303.410614	612.081909	-402.695587	-307.386383	503.863983	-343.083710	-343.425537	309.156952	-404.644073	-372.752197	81.945091	-322.152893	-413.692871	58.616623	-267.066254	-209.789276	39.226276	-295.464050
54	0.53000000	-247.111710	1458.485107	-16.254049	-259.538239	1489.272217	-419.127045	-356.847473	1557.459106	-209.167343	-194.130524	1466.385742	-223.205780	-286.051331	1142.049683	72.023087	-246.081741	1146.231201	-516.216003	-257.188179	863.575775	75.800720	-184.549133	888.313812	-486.894379	-180.303284	997.819763	-99.470299	-180.171555	995.485596	-327.947693	-395.994110	1032.108765	-218.059845	-412.817871	1340.975586	-235.468658	-131.887329	1276.178101	-233.382965	-291.707153	609.047546	-11.302298	-304.341736	517.793579	-63.267803	-345.657043	321.715393	18.797497	-375.470215	69.421211	-88.303375	-411.127716	57.362942	-135.430847	-211.993423	44.222031	-120.064537	-303.413513	612.084473	-402.688416	-307.372101	503.874146	-343.087097	-343.429413	309.106689	-404.655304	-372.798737	81.929543	-322.126831	-413.637268	58.632172	-266.990112	-209.817078	39.241745	-295.459930
